<svg width="16" height="16" viewBox="0 0 16 16" fill="none" xmlns="http://www.w3.org/2000/svg">
<path fill-rule="evenodd" clip-rule="evenodd" d="M13 9C14.6569 9 16 10.3431 16 12V13C16 14.6569 14.6569 16 13 16H12C10.3431 16 9 14.6569 9 13V12C9 10.3431 10.3431 9 12 9H13ZM4 9C5.65685 9 7 10.3431 7 12V13C7 14.6569 5.65685 16 4 16H3C1.34315 16 0 14.6569 0 13V12C0 10.3431 1.34315 9 3 9H4ZM13 11H12C11.4477 11 11 11.4477 11 12V13C11 13.5523 11.4477 14 12 14H13C13.5523 14 14 13.5523 14 13V12C14 11.4477 13.5523 11 13 11ZM4 11H3C2.44772 11 2 11.4477 2 12V13C2 13.5523 2.44772 14 3 14H4C4.55228 14 5 13.5523 5 13V12C5 11.4477 4.55228 11 4 11ZM4 0C5.65685 0 7 1.34315 7 3V4C7 5.65685 5.65685 7 4 7H3C1.34315 7 0 5.65685 0 4V3C0 1.34315 1.34315 0 3 0H4ZM13 0C14.6569 0 16 1.34315 16 3V4C16 5.65685 14.6569 7 13 7H12C10.3431 7 9 5.65685 9 4V3C9 1.34315 10.3431 0 12 0H13ZM4 2H3C2.44772 2 2 2.44772 2 3V4C2 4.55228 2.44772 5 3 5H4C4.55228 5 5 4.55228 5 4V3C5 2.44772 4.55228 2 4 2ZM13 2H12C11.4477 2 11 2.44772 11 3V4C11 4.55228 11.4477 5 12 5H13C13.5523 5 14 4.55228 14 4V3C14 2.44772 13.5523 2 13 2Z" fill="white"/>
</svg>
